<svg width="628" height="451" viewBox="0 0 628 451" fill="none" xmlns="http://www.w3.org/2000/svg">
<g clip-path="url(#clip0)">
<path opacity="0.3" d="M427.623 28.4678H382.757V45.177H427.623V28.4678Z" fill="#484848"/>
<path opacity="0.3" d="M502.193 0H457.327V16.7092H502.193V0Z" fill="#484848"/>
<path opacity="0.3" d="M505.288 51.6748H460.422V68.384H505.288V51.6748Z" fill="#484848"/>
<path opacity="0.3" d="M361.716 70.8594H316.851V87.5686H361.716V70.8594Z" fill="#484848"/>
<path opacity="0.3" d="M347.483 139.553H302.617V156.262H347.483V139.553Z" fill="#484848"/>
<path opacity="0.3" d="M415.246 138.005H370.38V154.715H415.246V138.005Z" fill="#484848"/>
<path d="M457.327 8.24902L427.623 36.4349L460.421 60.0292" stroke="#484848" stroke-miterlimit="10"/>
<path d="M382.757 36.4355L339.283 70.8596" stroke="#484848" stroke-miterlimit="10"/>
<path d="M325.05 139.54L339.283 87.5684L392.813 138.005" stroke="#484848" stroke-miterlimit="10"/>
<path opacity="0.3" d="M125.006 45.6812H80.1396V62.3904H125.006V45.6812Z" fill="#484848"/>
<path opacity="0.3" d="M199.576 17.2134H154.71V33.9226H199.576V17.2134Z" fill="#484848"/>
<path opacity="0.3" d="M202.671 68.8882H157.805V85.5974H202.671V68.8882Z" fill="#484848"/>
<path opacity="0.3" d="M59.0993 88.0732H14.2334V104.782H59.0993V88.0732Z" fill="#484848"/>
<path opacity="0.3" d="M44.8659 156.767H0V173.476H44.8659V156.767Z" fill="#484848"/>
<path opacity="0.3" d="M112.629 155.219H67.7627V171.928H112.629V155.219Z" fill="#484848"/>
<path d="M154.71 25.4629L125.006 53.6488L157.804 77.2431" stroke="#484848" stroke-miterlimit="10"/>
<path d="M80.1395 53.6489L36.666 88.073" stroke="#484848" stroke-miterlimit="10"/>
<path d="M22.4326 156.753L36.6656 104.782L90.1955 155.219" stroke="#484848" stroke-miterlimit="10"/>
<path d="M202.67 77.2432H253.55" stroke="#484848" stroke-miterlimit="10"/>
<path d="M283.461 68.6914H230.711V85.3497H283.461V68.6914Z" fill="#484848"/>
<path d="M283.529 77.0205H316.851" stroke="#484848" stroke-miterlimit="10"/>
<path d="M230.458 77.0203L199.576 25.4629" stroke="#484848" stroke-miterlimit="10"/>
<path d="M383.685 451C518.616 451 628 426.637 628 396.583C628 366.529 518.616 342.166 383.685 342.166C248.754 342.166 139.37 366.529 139.37 396.583C139.37 426.637 248.754 451 383.685 451Z" fill="#F2F2F2"/>
<path d="M496.95 217.453L473.126 336.822H467.968L467.401 335.94L465.758 333.384L486.388 221.874L489.52 220.562L496.95 217.453Z" fill="#8D8D8F"/>
<path opacity="0.1" d="M489.52 220.562L467.401 335.94L465.758 333.383L486.388 221.874L489.52 220.562Z" fill="black"/>
<path d="M532.809 380.05L526.684 382.025L525.195 382.506L523.23 378.085L489.521 224.31L493.025 223.524L500.389 221.874L532.809 380.05Z" fill="#8D8D8F"/>
<path opacity="0.1" d="M526.684 382.025L525.195 382.506L523.23 378.085L489.521 224.31L493.025 223.524L526.684 382.025Z" fill="black"/>
<path d="M240.781 217.453L235.377 372.19L229.185 373.566L228.746 373.664L227.026 370.471L230.465 218.926L233.773 218.455L240.781 217.453Z" fill="#8D8D8F"/>
<path opacity="0.1" d="M233.773 218.455L229.185 373.565L228.746 373.664L227.026 370.471L230.465 218.926L233.773 218.455Z" fill="black"/>
<path d="M272.955 426.963L266.55 428.068L265.833 428.19L263.868 424.015L232.676 221.873L233.575 221.601L238.325 220.154L272.955 426.963Z" fill="#8D8D8F"/>
<path opacity="0.1" d="M266.55 428.067L265.833 428.19L263.868 424.015L232.676 221.873L233.575 221.601L266.55 428.067Z" fill="black"/>
<path d="M408.531 204.926L432.38 235.401C433.198 236.445 434.27 237.262 435.494 237.773C436.718 238.283 438.053 238.47 439.37 238.316L537.273 226.849C539.155 226.629 540.891 225.725 542.151 224.309C543.411 222.893 544.107 221.063 544.107 219.168V196.575L408.531 204.926Z" fill="#767679"/>
<path d="M488.845 209.838H495.476V219.409C495.476 220.063 495.216 220.69 494.754 221.152C494.292 221.614 493.666 221.874 493.012 221.874H491.309C490.655 221.874 490.029 221.614 489.566 221.152C489.104 220.69 488.845 220.063 488.845 219.409V209.838Z" fill="#8D8D8F"/>
<path d="M232.676 224.33L256.525 254.805C257.342 255.849 258.415 256.666 259.639 257.176C260.863 257.687 262.197 257.874 263.515 257.72L361.417 246.253C363.3 246.033 365.036 245.129 366.295 243.713C367.555 242.297 368.251 240.467 368.251 238.572V215.979L232.676 224.33Z" fill="#767679"/>
<path d="M312.989 229.242H319.621V238.813C319.621 239.467 319.361 240.094 318.899 240.556C318.437 241.018 317.81 241.277 317.157 241.277H315.453C314.8 241.277 314.173 241.018 313.711 240.556C313.249 240.094 312.989 239.467 312.989 238.813V229.242H312.989Z" fill="#8D8D8F"/>
<path d="M260.076 239.764L551.287 205.842C552.202 205.735 553.058 205.337 553.729 204.705C554.399 204.073 554.848 203.242 555.009 202.335C555.169 201.428 555.033 200.494 554.621 199.67C554.208 198.846 553.541 198.178 552.719 197.763L500.626 171.564C490.366 166.404 478.845 164.282 467.42 165.447L208.701 191.828C207.775 191.925 206.896 192.28 206.164 192.853C205.431 193.426 204.875 194.194 204.559 195.069C204.243 195.944 204.179 196.89 204.375 197.799C204.572 198.708 205.02 199.544 205.67 200.21L235.797 231.121C238.915 234.32 242.725 236.763 246.933 238.261C251.142 239.759 255.638 240.273 260.076 239.764Z" fill="#8D8D8F"/>
<path d="M583.326 201.244L580.211 199.522C580.211 199.522 576.848 201.998 574.109 212.427C571.37 222.856 579.229 212.54 579.229 212.54L582.667 205.417L583.326 201.244Z" fill="#8D8D8F"/>
<path d="M550.001 296.787C550.001 296.787 546.808 311.769 545.335 315.945C544.613 317.988 541.125 319.857 537.259 321.287C533.831 322.564 530.283 323.489 526.669 324.05C522.493 324.541 468.951 316.19 442.916 310.541C425.377 306.736 423.11 302.372 423.499 299.93C423.623 299.204 423.972 298.534 424.496 298.015C424.496 298.015 450.285 280.576 459.372 272.225C468.459 263.874 486.389 270.506 506.037 273.944C525.686 277.383 550.001 296.787 550.001 296.787Z" fill="#8D8D8F"/>
<path d="M580.211 199.523C580.211 199.523 592.246 207.383 551.72 223.593C551.72 223.593 529.694 236.013 532.561 287.174C532.697 289.475 533.398 291.707 534.601 293.672C538.782 300.549 547.742 317.959 532.809 320.12V324.05C532.809 324.05 559.826 310.541 562.773 298.997C565.72 287.453 575.544 223.348 580.457 217.453C585.369 211.558 588.562 202.225 580.211 199.523Z" fill="#8D8D8F"/>
<path opacity="0.1" d="M537.259 321.286C533.832 322.563 530.283 323.489 526.669 324.05C522.493 324.541 468.951 316.19 442.916 310.541C425.377 306.736 423.11 302.372 423.499 299.93C435.027 303.872 472.463 316.384 485.898 317.418C501.862 318.646 532.362 322.06 534.673 319.739C535.562 318.845 536.473 319.788 537.259 321.286Z" fill="black"/>
<path d="M396.987 423.524L420.32 316.927C420.32 316.927 424.495 305.628 434.074 306.12L442.916 310.541C442.916 310.541 428.179 307.102 424.987 318.4C421.794 329.699 401.408 423.524 401.408 423.524H396.987Z" fill="#8D8D8F"/>
<path d="M452.986 374.892L462.319 309.804H466.495L456.916 374.892H452.986Z" fill="#8D8D8F"/>
<path d="M542.387 438.506L533.545 336.822C533.545 336.822 533.545 328.225 537.966 324.05C542.387 319.874 556.659 307.963 556.659 307.963C556.659 307.963 560.316 307.102 563.263 315.453C566.211 323.804 586.596 407.313 586.596 407.313L582.666 409.032L557.369 312.751L539.931 329.208C539.931 329.208 536.492 335.348 538.211 340.997C539.931 346.646 546.317 438.506 546.317 438.506H542.387Z" fill="#8D8D8F"/>
<path d="M515.125 321.594L537.229 327.979L542.142 323.313L529.37 321.594H515.125Z" fill="#8D8D8F"/>
<path d="M318.615 142.32L322.199 196.084L400.548 188.47L397.431 135.913C397.389 135.209 397.207 134.521 396.895 133.889C396.583 133.256 396.148 132.693 395.615 132.231C395.082 131.769 394.462 131.419 393.791 131.2C393.121 130.982 392.414 130.9 391.711 130.959L323.446 136.701C322.065 136.817 320.785 137.471 319.881 138.522C318.978 139.573 318.523 140.937 318.615 142.32Z" fill="#767679"/>
<path d="M426.83 203.944L348.726 212.464L345.779 212.786L322.938 198.049V194.856L400.549 187.866L426.83 203.944Z" fill="#767679"/>
<path opacity="0.1" d="M348.726 212.464L345.779 212.786L322.938 198.049V195.19L348.726 212.464Z" fill="black"/>
<path d="M323.919 141.803L326.621 189.698L395.391 183.312L392.935 136.645L323.919 141.803Z" fill="#48494C"/>
<path opacity="0.1" d="M364.936 202.961L373.286 208.61L398.584 206.154L389.987 200.75L364.936 202.961Z" fill="black"/>
<path d="M330.796 196.084L341.357 203.943L408.899 197.558L396.865 189.698L330.796 196.084Z" fill="#48494C"/>
<path d="M500.511 123.505H450.652V173.365H500.511V123.505Z" fill="#313131"/>
<path d="M467.823 146.579C467.823 146.579 474.856 165.628 467.823 169.145C460.79 172.661 493.026 169.145 493.026 169.145L502.111 161.818C502.111 161.818 481.597 155.957 484.527 142.476C487.458 128.995 467.823 146.579 467.823 146.579Z" fill="#FBBEBE"/>
<path opacity="0.1" d="M467.823 146.579C467.823 146.579 474.856 165.628 467.823 169.145C460.79 172.661 493.026 169.145 493.026 169.145L502.111 161.818C502.111 161.818 481.597 155.957 484.527 142.476C487.458 128.995 467.823 146.579 467.823 146.579Z" fill="black"/>
<path d="M410.091 337.658C410.091 337.658 436.466 374.878 432.07 385.135C427.674 395.392 430.019 401.84 421.227 405.357C412.435 408.874 410.091 415.321 417.71 415.028C425.33 414.735 435.294 412.683 436.759 410.046C438.224 407.408 441.741 394.806 446.723 393.048C451.705 391.29 461.083 384.549 454.343 376.343C447.602 368.137 430.619 337.912 431.931 334.855C433.242 331.797 410.091 337.658 410.091 337.658Z" fill="#FBBEBE"/>
<path d="M465.186 264.099C465.186 264.099 410.677 267.615 396.61 280.803C382.544 293.991 408.919 343.227 411.849 343.813C414.78 344.399 437.638 342.054 436.759 335.607C435.88 329.159 420.348 302.783 420.348 302.783C420.348 302.783 440.569 295.457 451.705 293.698C462.841 291.94 475.15 283.734 475.15 283.734L465.186 264.099Z" fill="#48494C"/>
<path d="M440.276 255.892C440.276 255.892 441.156 288.423 449.361 289.595C457.567 290.767 449.361 264.684 449.361 264.684L449.068 254.72L440.276 255.892Z" fill="#FBBEBE"/>
<path d="M465.186 170.61C465.186 170.61 449.947 166.214 447.016 177.937C444.086 189.659 443.207 230.103 443.207 230.103L437.932 262.34C437.932 262.34 447.603 259.409 449.654 260.875L461.962 245.342L465.186 170.61Z" fill="#C4C4C4"/>
<path d="M486.008 343.899C486.008 343.899 496.25 364.034 502.404 363.741C508.558 363.448 514.419 359.638 517.35 371.654C520.28 383.67 516.764 380.446 520.28 387.48C523.797 394.513 524.383 406.822 517.643 409.753C510.902 412.683 504.748 412.976 504.455 409.753C504.162 406.529 510.316 406.529 503.283 395.099C496.25 383.67 481.304 362.862 475.149 360.811C468.995 358.759 486.008 343.899 486.008 343.899Z" fill="#FBBEBE"/>
<path d="M512.661 252.083C512.661 252.083 533.761 287.251 519.988 297.508C506.214 307.765 465.186 327.401 465.186 327.401C465.186 327.401 487.165 342.347 488.337 347.329C489.51 352.311 477.787 365.792 473.684 366.085C469.582 366.379 457.566 352.604 444.672 349.088C431.777 345.571 423.865 320.367 437.931 310.989C451.998 301.611 465.186 286.078 465.186 286.078L461.085 263.515L512.661 252.083Z" fill="#48494C"/>
<path d="M494.371 134.803C494.371 147.266 481.605 157.569 469.143 157.569C463.158 157.569 457.418 155.191 453.186 150.959C448.955 146.727 446.577 140.988 446.577 135.003C446.577 129.018 448.955 123.278 453.186 119.046C457.418 114.814 463.158 112.437 469.143 112.437C481.605 112.437 494.371 122.34 494.371 134.803Z" fill="#FBBEBE"/>
<path d="M474.856 167.387C474.856 167.387 495.077 158.595 495.077 157.422C495.077 156.25 506.8 160.06 509.437 162.405C512.075 164.749 513.54 164.456 515.298 169.145C517.057 173.834 506.507 217.501 506.507 217.501C506.507 217.501 512.368 251.204 515.591 254.427C518.815 257.651 489.509 262.34 489.509 262.34C489.509 262.34 470.168 265.857 466.944 267.322C463.72 268.788 457.859 270.839 459.031 267.322C460.204 263.806 465.186 261.168 456.687 256.772C456.687 256.772 459.617 242.412 456.687 235.964C453.756 229.517 440.276 206.071 451.119 189.074C461.962 172.076 466.944 165.921 466.944 165.921C466.944 165.921 470.754 169.145 474.856 167.387Z" fill="#D1D1D2"/>
<path d="M481.304 247.394C481.304 247.394 458.445 257.532 451.559 258.471C444.672 259.409 423.865 264.684 435.294 269.374C446.723 274.063 464.013 267.029 464.013 267.029L488.337 256.772L481.304 247.394Z" fill="#FBBEBE"/>
<path opacity="0.1" d="M505.914 166.487C505.914 166.487 514.355 162.404 516.7 176.764C519.044 191.125 527.25 236.55 516.7 243.291C506.15 250.031 481.826 260.875 481.826 260.875C481.826 260.875 467.466 251.203 474.206 247.687C480.947 244.17 497.065 234.205 499.409 230.689C501.754 227.172 504.123 187.917 500.02 181.47C495.917 175.022 505.914 166.487 505.914 166.487Z" fill="black"/>
<path d="M505.335 162.991C505.335 162.991 517.057 162.404 519.402 176.765C521.746 191.125 529.952 236.55 519.402 243.291C508.852 250.031 484.528 260.875 484.528 260.875C484.528 260.875 470.168 251.204 476.908 247.687C483.649 244.17 499.767 234.206 502.111 230.689C504.456 227.172 500.353 190.539 496.25 184.091C492.148 177.644 505.335 162.991 505.335 162.991Z" fill="#D1D1D2"/>
<path d="M463.584 97.0154C459.986 97.5051 456.127 98.8212 454.317 101.969C453.431 103.509 453.145 105.316 452.462 106.956C450.579 111.483 446.006 114.186 442.704 117.811C438.401 122.534 436.264 129.653 438.802 135.517C439.785 137.788 441.38 139.733 442.591 141.891C445.967 147.912 446.147 155.143 446.244 162.045L446.432 175.617C446.461 177.69 446.484 179.804 445.86 181.78C445.236 183.757 443.843 185.608 441.867 186.232C444.047 186.988 446.418 186.993 448.602 186.247C450.785 185.501 452.658 184.047 453.92 182.115C454.19 183.825 454.036 185.574 453.473 187.21C452.909 188.846 451.953 190.319 450.687 191.499C456.06 190.234 460.566 186.326 463.404 181.592C466.242 176.858 467.559 171.351 468.149 165.863C468.46 162.96 468.57 159.959 467.653 157.187C467.007 155.235 465.881 153.485 464.811 151.729C462.054 147.201 459.572 142.385 458.683 137.159C457.794 131.933 458.686 126.199 462.08 122.127C463.382 120.553 465.023 119.294 466.88 118.442C468.737 117.591 470.762 117.169 472.805 117.209C474.847 117.288 476.835 117.89 478.578 118.957C480.321 120.024 481.76 121.521 482.76 123.303C483.543 124.779 484.659 126.779 486.248 126.261C486.542 126.136 486.829 125.995 487.108 125.838C488.879 125.032 490.892 126.623 491.673 128.406C494.137 134.029 489.597 140.167 489.128 146.288C488.692 151.983 491.866 157.353 495.661 161.621C502.216 168.962 510.777 174.222 520.288 176.752C518.896 176.401 517.647 175.625 516.716 174.533C520.583 174.687 524.454 174.363 528.241 173.566C524.118 170.459 519.965 167.325 516.523 163.476C513.08 159.628 510.354 154.972 509.611 149.862C508.615 143.004 511.169 135.578 508.249 129.294C505.579 123.549 498.958 120.338 496.54 114.483C494.084 108.535 492.492 103.367 485.989 100.778C478.892 97.9521 471.252 95.9718 463.584 97.0154Z" fill="#484848"/>
</g>
<defs>
<clipPath id="clip0">
<rect width="628" height="451" fill="white"/>
</clipPath>
</defs>
</svg>
